<svg width="41" height="41" viewBox="0 0 41 41" fill="none" xmlns="http://www.w3.org/2000/svg">
<g clip-path="url(#clip0_2_75)">
<path d="M20.5 3.69513C25.9735 3.69513 26.6227 3.71563 28.7854 3.81471C34.3409 4.06754 36.9359 6.7035 37.1887 12.218C37.2878 14.379 37.3066 15.0282 37.3066 20.5017C37.3066 25.9769 37.2861 26.6244 37.1887 28.7854C36.9342 34.2948 34.346 36.9359 28.7854 37.1887C26.6227 37.2878 25.9769 37.3083 20.5 37.3083C15.0265 37.3083 14.3773 37.2878 12.2163 37.1887C6.64713 36.9342 4.06583 34.2863 3.813 28.7837C3.71392 26.6227 3.69342 25.9752 3.69342 20.5C3.69342 15.0265 3.71563 14.379 3.813 12.2163C4.06754 6.7035 6.65567 4.06583 12.2163 3.813C14.379 3.71563 15.0265 3.69513 20.5 3.69513V3.69513ZM20.5 0C14.9325 0 14.2355 0.0239167 12.0489 0.123C4.60396 0.464667 0.466375 4.59542 0.124708 12.0472C0.0239167 14.2355 0 14.9325 0 20.5C0 26.0675 0.0239167 26.7662 0.123 28.9528C0.464667 36.3978 4.59542 40.5353 12.0472 40.877C14.2355 40.9761 14.9325 41 20.5 41C26.0675 41 26.7662 40.9761 28.9528 40.877C36.3909 40.5353 40.5388 36.4046 40.8753 28.9528C40.9761 26.7662 41 26.0675 41 20.5C41 14.9325 40.9761 14.2355 40.877 12.0489C40.5422 4.61079 36.4063 0.466375 28.9545 0.124708C26.7662 0.0239167 26.0675 0 20.5 0V0ZM20.5 9.97325C14.6865 9.97325 9.97325 14.6865 9.97325 20.5C9.97325 26.3135 14.6865 31.0285 20.5 31.0285C26.3135 31.0285 31.0268 26.3152 31.0268 20.5C31.0268 14.6865 26.3135 9.97325 20.5 9.97325ZM20.5 27.3333C16.7263 27.3333 13.6667 24.2754 13.6667 20.5C13.6667 16.7263 16.7263 13.6667 20.5 13.6667C24.2737 13.6667 27.3333 16.7263 27.3333 20.5C27.3333 24.2754 24.2737 27.3333 20.5 27.3333ZM31.4436 7.09813C30.0838 7.09813 28.9819 8.2 28.9819 9.55812C28.9819 10.9162 30.0838 12.0181 31.4436 12.0181C32.8017 12.0181 33.9019 10.9162 33.9019 9.55812C33.9019 8.2 32.8017 7.09813 31.4436 7.09813Z" fill="white"/>
</g>
<defs>
<clipPath id="clip0_2_75">
<rect width="41" height="41" fill="white"/>
</clipPath>
</defs>
</svg>
